<svg width="11" height="11" viewBox="0 0 11 11" fill="none" xmlns="http://www.w3.org/2000/svg">
<g clip-path="url(#clip0_1_463)">
<path d="M5.62109 1.23633C7.87109 1.23633 9.68359 3.04883 9.68359 5.29883C9.68359 7.54883 7.87109 9.36133 5.62109 9.36133C3.37109 9.36133 1.55859 7.54883 1.55859 5.29883C1.55859 3.04883 3.37109 1.23633 5.62109 1.23633ZM5.62109 0.298828C2.87109 0.298828 0.621094 2.54883 0.621094 5.29883C0.621094 8.04883 2.87109 10.2988 5.62109 10.2988C8.37109 10.2988 10.6211 8.04883 10.6211 5.29883C10.6211 2.54883 8.37109 0.298828 5.62109 0.298828Z" fill="#F5F5F5"/>
<path d="M6.80859 6.73633C6.49609 6.98633 6.05859 7.17383 5.62109 7.17383C4.55859 7.17383 3.74609 6.36133 3.74609 5.29883C3.74609 4.23633 4.55859 3.42383 5.62109 3.42383C6.12109 3.42383 6.62109 3.61133 6.93359 3.98633L7.62109 3.29883C7.12109 2.79883 6.37109 2.48633 5.62109 2.48633C4.05859 2.48633 2.80859 3.73633 2.80859 5.29883C2.80859 6.86133 4.05859 8.11133 5.62109 8.11133C6.30859 8.11133 6.87109 7.86133 7.37109 7.48633L6.80859 6.73633Z" fill="#F5F5F5"/>
</g>
<defs>
<clipPath id="clip0_1_463">
<rect width="10" height="10" fill="white" transform="translate(0.621094 0.298828)"/>
</clipPath>
</defs>
</svg>
