<svg width="16" height="15" viewBox="0 0 16 15" fill="none" xmlns="http://www.w3.org/2000/svg">
<g clip-path="url(#clip0_1_480)">
<path d="M9.09257 9.19017C8.71939 9.43896 8.28591 9.57047 7.83899 9.57047C7.39209 9.57047 6.95862 9.43896 6.58543 9.19017L0.438862 5.09232C0.404761 5.06959 0.371538 5.04589 0.338989 5.02151V11.7363C0.338989 12.5061 0.963745 13.1171 1.71984 13.1171H13.9581C14.728 13.1171 15.339 12.4924 15.339 11.7363V5.02148C15.3064 5.04592 15.2731 5.06968 15.2389 5.09244L9.09257 9.19017Z" fill="#F5F5F5"/>
<path d="M0.926392 4.36109L7.07296 8.45897C7.30564 8.61409 7.5723 8.69164 7.83896 8.69164C8.10565 8.69164 8.37234 8.61407 8.60501 8.45897L14.7516 4.36109C15.1194 4.11603 15.339 3.70587 15.339 3.26319C15.339 2.50203 14.7197 1.88281 13.9586 1.88281H1.71937C0.958237 1.88284 0.338989 2.50206 0.338989 3.26393C0.338989 3.70587 0.558599 4.11603 0.926392 4.36109Z" fill="#F5F5F5"/>
</g>
<defs>
<clipPath id="clip0_1_480">
<rect width="15" height="15" fill="white" transform="translate(0.338989)"/>
</clipPath>
</defs>
</svg>
