<svg width="236" height="151" viewBox="0 0 236 151" fill="none" xmlns="http://www.w3.org/2000/svg">
<path d="M13.2773 14.3164V59.8164H5.43359V14.3164H13.2773ZM31.8398 34.2227V40.4414H11.2773V34.2227H31.8398ZM34.4336 14.3164V20.5664H11.2773V14.3164H34.4336ZM76.9648 35.8164V38.3164C76.9648 41.7539 76.5169 44.8372 75.6211 47.5664C74.7253 50.2956 73.444 52.6185 71.7773 54.5352C70.1315 56.4518 68.1523 57.9206 65.8398 58.9414C63.5273 59.9414 60.9648 60.4414 58.1523 60.4414C55.3607 60.4414 52.8086 59.9414 50.4961 58.9414C48.2044 57.9206 46.2148 56.4518 44.5273 54.5352C42.8398 52.6185 41.5273 50.2956 40.5898 47.5664C39.6732 44.8372 39.2148 41.7539 39.2148 38.3164V35.8164C39.2148 32.3789 39.6732 29.306 40.5898 26.5977C41.5065 23.8685 42.7982 21.5456 44.4648 19.6289C46.1523 17.6914 48.1419 16.2227 50.4336 15.2227C52.7461 14.2018 55.2982 13.6914 58.0898 13.6914C60.9023 13.6914 63.4648 14.2018 65.7773 15.2227C68.0898 16.2227 70.0794 17.6914 71.7461 19.6289C73.4128 21.5456 74.694 23.8685 75.5898 26.5977C76.5065 29.306 76.9648 32.3789 76.9648 35.8164ZM69.1211 38.3164V35.7539C69.1211 33.2122 68.8711 30.9727 68.3711 29.0352C67.8919 27.0768 67.1732 25.4414 66.2148 24.1289C65.2773 22.7956 64.1211 21.7956 62.7461 21.1289C61.3711 20.4414 59.819 20.0977 58.0898 20.0977C56.3607 20.0977 54.819 20.4414 53.4648 21.1289C52.1107 21.7956 50.9544 22.7956 49.9961 24.1289C49.0586 25.4414 48.3398 27.0768 47.8398 29.0352C47.3398 30.9727 47.0898 33.2122 47.0898 35.7539V38.3164C47.0898 40.8581 47.3398 43.1081 47.8398 45.0664C48.3398 47.0247 49.069 48.681 50.0273 50.0352C51.0065 51.3685 52.1732 52.3789 53.5273 53.0664C54.8815 53.7331 56.4232 54.0664 58.1523 54.0664C59.9023 54.0664 61.4544 53.7331 62.8086 53.0664C64.1628 52.3789 65.3086 51.3685 66.2461 50.0352C67.1836 48.681 67.8919 47.0247 68.3711 45.0664C68.8711 43.1081 69.1211 40.8581 69.1211 38.3164ZM84.8086 14.3164H100.902C104.361 14.3164 107.309 14.8372 109.746 15.8789C112.184 16.9206 114.048 18.4622 115.34 20.5039C116.652 22.5247 117.309 25.0247 117.309 28.0039C117.309 30.2747 116.892 32.2747 116.059 34.0039C115.225 35.7331 114.048 37.1914 112.527 38.3789C111.007 39.5456 109.194 40.4518 107.09 41.0977L104.715 42.2539H90.2461L90.1836 36.0352H101.027C102.902 36.0352 104.465 35.7018 105.715 35.0352C106.965 34.3685 107.902 33.4622 108.527 32.3164C109.173 31.1497 109.496 29.8372 109.496 28.3789C109.496 26.7956 109.184 25.4206 108.559 24.2539C107.954 23.0664 107.017 22.1602 105.746 21.5352C104.475 20.8893 102.861 20.5664 100.902 20.5664H92.6523V59.8164H84.8086V14.3164ZM110.777 59.8164L100.09 39.3789L108.309 39.3477L119.152 59.4102V59.8164H110.777ZM128.309 14.3164H135.309L148.465 49.4102L161.59 14.3164H168.59L151.215 59.8164H145.652L128.309 14.3164ZM125.121 14.3164H131.777L132.934 44.6914V59.8164H125.121V14.3164ZM165.121 14.3164H171.809V59.8164H163.965V44.6914L165.121 14.3164ZM199.402 20.3789L185.809 59.8164H177.59L194.715 14.3164H199.965L199.402 20.3789ZM210.777 59.8164L197.152 20.3789L196.559 14.3164H201.84L219.027 59.8164H210.777ZM210.121 42.9414V49.1602H185.371V42.9414H210.121ZM29.3711 123.098C29.3711 122.16 29.2253 121.327 28.9336 120.598C28.6628 119.868 28.1732 119.202 27.4648 118.598C26.7565 117.993 25.7565 117.41 24.4648 116.848C23.194 116.264 21.569 115.671 19.5898 115.066C17.4232 114.4 15.4232 113.66 13.5898 112.848C11.7773 112.014 10.194 111.056 8.83984 109.973C7.48568 108.868 6.43359 107.608 5.68359 106.191C4.93359 104.754 4.55859 103.098 4.55859 101.223C4.55859 99.3685 4.94401 97.681 5.71484 96.1602C6.50651 94.6393 7.62109 93.3268 9.05859 92.2227C10.5169 91.0977 12.2357 90.2331 14.2148 89.6289C16.194 89.0039 18.3815 88.6914 20.7773 88.6914C24.1523 88.6914 27.0586 89.3164 29.4961 90.5664C31.9544 91.8164 33.8398 93.4935 35.1523 95.5977C36.4857 97.7018 37.1523 100.025 37.1523 102.566H29.3711C29.3711 101.066 29.0482 99.7435 28.4023 98.5977C27.7773 97.431 26.819 96.5143 25.5273 95.8477C24.2565 95.181 22.6419 94.8477 20.6836 94.8477C18.8294 94.8477 17.2878 95.1289 16.0586 95.6914C14.8294 96.2539 13.9128 97.0143 13.3086 97.9727C12.7044 98.931 12.4023 100.014 12.4023 101.223C12.4023 102.077 12.6003 102.858 12.9961 103.566C13.3919 104.254 13.9961 104.9 14.8086 105.504C15.6211 106.087 16.6419 106.639 17.8711 107.16C19.1003 107.681 20.5482 108.181 22.2148 108.66C24.7357 109.41 26.9336 110.243 28.8086 111.16C30.6836 112.056 32.2461 113.077 33.4961 114.223C34.7461 115.368 35.6836 116.671 36.3086 118.129C36.9336 119.566 37.2461 121.202 37.2461 123.035C37.2461 124.952 36.8607 126.681 36.0898 128.223C35.319 129.743 34.2148 131.046 32.7773 132.129C31.3607 133.191 29.6523 134.014 27.6523 134.598C25.6732 135.16 23.4648 135.441 21.0273 135.441C18.8398 135.441 16.6836 135.15 14.5586 134.566C12.4544 133.983 10.5378 133.098 8.80859 131.91C7.07943 130.702 5.70443 129.202 4.68359 127.41C3.66276 125.598 3.15234 123.483 3.15234 121.066H10.9961C10.9961 122.546 11.2461 123.806 11.7461 124.848C12.2669 125.889 12.9857 126.743 13.9023 127.41C14.819 128.056 15.8815 128.535 17.0898 128.848C18.319 129.16 19.6315 129.316 21.0273 129.316C22.8607 129.316 24.3919 129.056 25.6211 128.535C26.8711 128.014 27.8086 127.285 28.4336 126.348C29.0586 125.41 29.3711 124.327 29.3711 123.098ZM62.9023 89.3164V134.816H55.1211V89.3164H62.9023ZM77.1836 89.3164V95.5664H40.9648V89.3164H77.1836ZM108.715 89.3164H116.527V119.723C116.527 123.181 115.777 126.077 114.277 128.41C112.777 130.743 110.736 132.504 108.152 133.691C105.59 134.858 102.725 135.441 99.5586 135.441C96.2878 135.441 93.3711 134.858 90.8086 133.691C88.2461 132.504 86.2253 130.743 84.7461 128.41C83.2878 126.077 82.5586 123.181 82.5586 119.723V89.3164H90.3711V119.723C90.3711 121.91 90.7461 123.712 91.4961 125.129C92.2461 126.525 93.3086 127.556 94.6836 128.223C96.0586 128.889 97.6836 129.223 99.5586 129.223C101.434 129.223 103.048 128.889 104.402 128.223C105.777 127.556 106.84 126.525 107.59 125.129C108.34 123.712 108.715 121.91 108.715 119.723V89.3164ZM138.277 134.816H128.559L128.621 128.598H138.277C141.09 128.598 143.444 127.983 145.34 126.754C147.257 125.525 148.694 123.764 149.652 121.473C150.632 119.181 151.121 116.452 151.121 113.285V110.816C151.121 108.358 150.84 106.181 150.277 104.285C149.736 102.389 148.923 100.796 147.84 99.5039C146.777 98.2122 145.465 97.2331 143.902 96.5664C142.361 95.8997 140.579 95.5664 138.559 95.5664H128.371V89.3164H138.559C141.579 89.3164 144.34 89.8268 146.84 90.8477C149.34 91.8477 151.496 93.2956 153.309 95.1914C155.142 97.0872 156.548 99.3581 157.527 102.004C158.507 104.65 158.996 107.608 158.996 110.879V113.285C158.996 116.556 158.507 119.514 157.527 122.16C156.548 124.806 155.142 127.077 153.309 128.973C151.475 130.848 149.288 132.296 146.746 133.316C144.225 134.316 141.402 134.816 138.277 134.816ZM132.902 89.3164V134.816H125.059V89.3164H132.902ZM175.246 89.3164V134.816H167.402V89.3164H175.246ZM221.277 110.816V113.316C221.277 116.754 220.829 119.837 219.934 122.566C219.038 125.296 217.757 127.618 216.09 129.535C214.444 131.452 212.465 132.921 210.152 133.941C207.84 134.941 205.277 135.441 202.465 135.441C199.673 135.441 197.121 134.941 194.809 133.941C192.517 132.921 190.527 131.452 188.84 129.535C187.152 127.618 185.84 125.296 184.902 122.566C183.986 119.837 183.527 116.754 183.527 113.316V110.816C183.527 107.379 183.986 104.306 184.902 101.598C185.819 98.8685 187.111 96.5456 188.777 94.6289C190.465 92.6914 192.454 91.2227 194.746 90.2227C197.059 89.2018 199.611 88.6914 202.402 88.6914C205.215 88.6914 207.777 89.2018 210.09 90.2227C212.402 91.2227 214.392 92.6914 216.059 94.6289C217.725 96.5456 219.007 98.8685 219.902 101.598C220.819 104.306 221.277 107.379 221.277 110.816ZM213.434 113.316V110.754C213.434 108.212 213.184 105.973 212.684 104.035C212.204 102.077 211.486 100.441 210.527 99.1289C209.59 97.7956 208.434 96.7956 207.059 96.1289C205.684 95.4414 204.132 95.0977 202.402 95.0977C200.673 95.0977 199.132 95.4414 197.777 96.1289C196.423 96.7956 195.267 97.7956 194.309 99.1289C193.371 100.441 192.652 102.077 192.152 104.035C191.652 105.973 191.402 108.212 191.402 110.754V113.316C191.402 115.858 191.652 118.108 192.152 120.066C192.652 122.025 193.382 123.681 194.34 125.035C195.319 126.368 196.486 127.379 197.84 128.066C199.194 128.733 200.736 129.066 202.465 129.066C204.215 129.066 205.767 128.733 207.121 128.066C208.475 127.379 209.621 126.368 210.559 125.035C211.496 123.681 212.204 122.025 212.684 120.066C213.184 118.108 213.434 115.858 213.434 113.316Z" fill="#F5F5F5"/>
</svg>
