<svg width="16" height="15" viewBox="0 0 16 15" fill="none" xmlns="http://www.w3.org/2000/svg">
<g clip-path="url(#clip0_1_485)">
<path d="M12.1992 2.77539C11.9985 2.77539 11.8351 2.93878 11.8351 3.13955C11.8351 3.34032 11.9985 3.50371 12.1992 3.50371C12.4 3.50371 12.5634 3.34035 12.5634 3.13955C12.5634 2.93875 12.4 2.77539 12.1992 2.77539Z" fill="#F5F5F5"/>
<path d="M7.83887 4.27148C6.05874 4.27148 4.61047 5.71975 4.61047 7.49988C4.61047 9.28002 6.05874 10.7283 7.83887 10.7283C9.61904 10.7283 11.0673 9.28005 11.0673 7.49991C11.0673 5.71978 9.61904 4.27148 7.83887 4.27148Z" fill="#F5F5F5"/>
<path d="M11.227 0H4.45101C2.18364 0 0.338989 1.84465 0.338989 4.11205V10.888C0.338989 13.1554 2.18364 15 4.45101 15H11.227C13.4944 15 15.339 13.1554 15.339 10.888V4.11205C15.339 1.84465 13.4944 0 11.227 0ZM7.83899 11.6142C5.57039 11.6142 3.7248 9.7686 3.7248 7.5C3.7248 5.2314 5.57042 3.38584 7.83899 3.38584C10.1076 3.38584 11.9532 5.23143 11.9532 7.5C11.9532 9.76857 10.1076 11.6142 7.83899 11.6142ZM12.1993 4.38973C11.51 4.38973 10.9493 3.82898 10.9493 3.13975C10.9493 2.45051 11.51 1.88974 12.1993 1.88974C12.8885 1.88974 13.4493 2.45048 13.4493 3.13972C13.4493 3.82895 12.8885 4.38973 12.1993 4.38973Z" fill="#F5F5F5"/>
</g>
<defs>
<clipPath id="clip0_1_485">
<rect width="15" height="15" fill="white" transform="translate(0.338989)"/>
</clipPath>
</defs>
</svg>
