<svg width="142" height="15" viewBox="0 0 142 15" fill="none" xmlns="http://www.w3.org/2000/svg">
<path d="M2.99658 0.28125V14.5H0.54541V0.28125H2.99658ZM8.79736 6.50195V8.44531H2.37158V6.50195H8.79736ZM9.60791 0.28125V2.23438H2.37158V0.28125H9.60791ZM22.8989 7V7.78125C22.8989 8.85547 22.759 9.81901 22.479 10.6719C22.1991 11.5247 21.7987 12.2507 21.2778 12.8496C20.7635 13.4486 20.145 13.9076 19.4224 14.2266C18.6997 14.5391 17.8989 14.6953 17.02 14.6953C16.1476 14.6953 15.3501 14.5391 14.6274 14.2266C13.9113 13.9076 13.2896 13.4486 12.7622 12.8496C12.2349 12.2507 11.8247 11.5247 11.5317 10.6719C11.2453 9.81901 11.1021 8.85547 11.1021 7.78125V7C11.1021 5.92578 11.2453 4.96549 11.5317 4.11914C11.8182 3.26628 12.2218 2.54036 12.7427 1.94141C13.27 1.33594 13.8918 0.876953 14.6079 0.564453C15.3306 0.245443 16.1281 0.0859375 17.0005 0.0859375C17.8794 0.0859375 18.6802 0.245443 19.4028 0.564453C20.1255 0.876953 20.7472 1.33594 21.2681 1.94141C21.7889 2.54036 22.1893 3.26628 22.4692 4.11914C22.7557 4.96549 22.8989 5.92578 22.8989 7ZM20.4478 7.78125V6.98047C20.4478 6.1862 20.3696 5.48633 20.2134 4.88086C20.0636 4.26888 19.839 3.75781 19.5396 3.34766C19.2466 2.93099 18.8853 2.61849 18.4556 2.41016C18.0259 2.19531 17.5409 2.08789 17.0005 2.08789C16.4601 2.08789 15.9784 2.19531 15.5552 2.41016C15.132 2.61849 14.7707 2.93099 14.4712 3.34766C14.1782 3.75781 13.9536 4.26888 13.7974 4.88086C13.6411 5.48633 13.563 6.1862 13.563 6.98047V7.78125C13.563 8.57552 13.6411 9.27865 13.7974 9.89062C13.9536 10.5026 14.1815 11.0202 14.481 11.4434C14.7869 11.86 15.1515 12.1758 15.5747 12.3906C15.9979 12.599 16.4797 12.7031 17.02 12.7031C17.5669 12.7031 18.0519 12.599 18.4751 12.3906C18.8983 12.1758 19.2563 11.86 19.5493 11.4434C19.8423 11.0202 20.0636 10.5026 20.2134 9.89062C20.3696 9.27865 20.4478 8.57552 20.4478 7.78125ZM25.3501 0.28125H30.3794C31.4601 0.28125 32.3813 0.44401 33.1431 0.769531C33.9048 1.09505 34.4875 1.57682 34.8911 2.21484C35.3013 2.84635 35.5063 3.6276 35.5063 4.55859C35.5063 5.26823 35.3761 5.89323 35.1157 6.43359C34.8553 6.97396 34.4875 7.42969 34.0122 7.80078C33.5369 8.16536 32.9705 8.44857 32.313 8.65039L31.5708 9.01172H27.0493L27.0298 7.06836H30.4185C31.0044 7.06836 31.4927 6.96419 31.8833 6.75586C32.2739 6.54753 32.5669 6.26432 32.7622 5.90625C32.964 5.54167 33.0649 5.13151 33.0649 4.67578C33.0649 4.18099 32.9673 3.7513 32.772 3.38672C32.5832 3.01562 32.2902 2.73242 31.8931 2.53711C31.4959 2.33529 30.9914 2.23438 30.3794 2.23438H27.8013V14.5H25.3501V0.28125ZM33.4653 14.5L30.1255 8.11328L32.6938 8.10352L36.0825 14.373V14.5H33.4653ZM38.9438 0.28125H41.1313L45.2427 11.248L49.3442 0.28125H51.5317L46.1021 14.5H44.3638L38.9438 0.28125ZM37.9478 0.28125H40.0278L40.3892 9.77344V14.5H37.9478V0.28125ZM50.4478 0.28125H52.5376V14.5H50.0864V9.77344L50.4478 0.28125ZM61.1606 2.17578L56.9126 14.5H54.3442L59.6958 0.28125H61.3364L61.1606 2.17578ZM64.7153 14.5L60.4575 2.17578L60.272 0.28125H61.9224L67.2935 14.5H64.7153ZM64.5103 9.22656V11.1699H56.7759V9.22656H64.5103ZM81.3462 10.8379C81.3462 10.5449 81.3006 10.2845 81.2095 10.0566C81.1248 9.82878 80.9718 9.62044 80.7505 9.43164C80.5291 9.24284 80.2166 9.06055 79.813 8.88477C79.4159 8.70247 78.908 8.51693 78.2896 8.32812C77.6125 8.11979 76.9875 7.88867 76.4146 7.63477C75.8481 7.37435 75.3534 7.07487 74.9302 6.73633C74.507 6.39128 74.1782 5.9974 73.9438 5.55469C73.7095 5.10547 73.5923 4.58789 73.5923 4.00195C73.5923 3.42253 73.7127 2.89518 73.9536 2.41992C74.201 1.94466 74.5493 1.53451 74.9985 1.18945C75.4543 0.837891 75.9914 0.567708 76.6099 0.378906C77.2284 0.183594 77.9119 0.0859375 78.6606 0.0859375C79.7153 0.0859375 80.6235 0.28125 81.3853 0.671875C82.1535 1.0625 82.7427 1.58659 83.1528 2.24414C83.5695 2.90169 83.7778 3.6276 83.7778 4.42188H81.3462C81.3462 3.95312 81.2453 3.53971 81.0435 3.18164C80.8481 2.81706 80.5487 2.5306 80.145 2.32227C79.7479 2.11393 79.2433 2.00977 78.6313 2.00977C78.0519 2.00977 77.5701 2.09766 77.186 2.27344C76.8019 2.44922 76.5155 2.68685 76.3267 2.98633C76.1379 3.28581 76.0435 3.62435 76.0435 4.00195C76.0435 4.26888 76.1053 4.51302 76.229 4.73438C76.3527 4.94922 76.5415 5.15104 76.7954 5.33984C77.0493 5.52214 77.3683 5.69466 77.7524 5.85742C78.1366 6.02018 78.589 6.17643 79.1099 6.32617C79.8976 6.56055 80.5845 6.82096 81.1704 7.10742C81.7563 7.38737 82.2446 7.70638 82.6353 8.06445C83.0259 8.42253 83.3188 8.82943 83.5142 9.28516C83.7095 9.73438 83.8071 10.2454 83.8071 10.8184C83.8071 11.4173 83.6867 11.9577 83.4458 12.4395C83.2049 12.9147 82.8599 13.3216 82.4106 13.6602C81.9679 13.9922 81.4341 14.2493 80.8091 14.4316C80.1906 14.6074 79.5005 14.6953 78.7388 14.6953C78.0552 14.6953 77.3813 14.6042 76.7173 14.4219C76.0597 14.2396 75.4608 13.9629 74.9204 13.5918C74.38 13.2142 73.9504 12.7454 73.6313 12.1855C73.3123 11.6191 73.1528 10.9583 73.1528 10.2031H75.604C75.604 10.6654 75.6821 11.0592 75.8384 11.3848C76.0011 11.7103 76.2257 11.9772 76.5122 12.1855C76.7987 12.3874 77.1307 12.5371 77.5083 12.6348C77.8924 12.7324 78.3026 12.7812 78.7388 12.7812C79.3117 12.7812 79.7902 12.6999 80.1743 12.5371C80.5649 12.3743 80.8579 12.1465 81.0532 11.8535C81.2485 11.5605 81.3462 11.222 81.3462 10.8379ZM91.8247 0.28125V14.5H89.3931V0.28125H91.8247ZM96.2876 0.28125V2.23438H84.9692V0.28125H96.2876ZM106.141 0.28125H108.583V9.7832C108.583 10.8639 108.348 11.7689 107.879 12.498C107.411 13.2272 106.773 13.7773 105.965 14.1484C105.165 14.513 104.269 14.6953 103.28 14.6953C102.258 14.6953 101.346 14.513 100.545 14.1484C99.7446 13.7773 99.1131 13.2272 98.6509 12.498C98.1951 11.7689 97.9673 10.8639 97.9673 9.7832V0.28125H100.409V9.7832C100.409 10.4668 100.526 11.0299 100.76 11.4727C100.995 11.9089 101.327 12.2311 101.756 12.4395C102.186 12.6478 102.694 12.752 103.28 12.752C103.866 12.752 104.37 12.6478 104.793 12.4395C105.223 12.2311 105.555 11.9089 105.79 11.4727C106.024 11.0299 106.141 10.4668 106.141 9.7832V0.28125ZM115.379 14.5H112.342L112.362 12.5566H115.379C116.258 12.5566 116.994 12.3646 117.586 11.9805C118.185 11.5964 118.635 11.0462 118.934 10.3301C119.24 9.61393 119.393 8.76107 119.393 7.77148V7C119.393 6.23177 119.305 5.55143 119.129 4.95898C118.96 4.36654 118.706 3.86849 118.368 3.46484C118.036 3.0612 117.625 2.75521 117.137 2.54688C116.655 2.33854 116.099 2.23438 115.467 2.23438H112.284V0.28125H115.467C116.411 0.28125 117.274 0.440755 118.055 0.759766C118.836 1.07227 119.51 1.52474 120.077 2.11719C120.65 2.70964 121.089 3.41927 121.395 4.24609C121.701 5.07292 121.854 5.9974 121.854 7.01953V7.77148C121.854 8.79362 121.701 9.7181 121.395 10.5449C121.089 11.3717 120.65 12.0814 120.077 12.6738C119.504 13.2598 118.82 13.7122 118.026 14.0312C117.238 14.3438 116.356 14.5 115.379 14.5ZM113.7 0.28125V14.5H111.249V0.28125H113.7ZM126.932 0.28125V14.5H124.481V0.28125H126.932ZM141.317 7V7.78125C141.317 8.85547 141.177 9.81901 140.897 10.6719C140.617 11.5247 140.217 12.2507 139.696 12.8496C139.181 13.4486 138.563 13.9076 137.84 14.2266C137.118 14.5391 136.317 14.6953 135.438 14.6953C134.566 14.6953 133.768 14.5391 133.045 14.2266C132.329 13.9076 131.708 13.4486 131.18 12.8496C130.653 12.2507 130.243 11.5247 129.95 10.6719C129.663 9.81901 129.52 8.85547 129.52 7.78125V7C129.52 5.92578 129.663 4.96549 129.95 4.11914C130.236 3.26628 130.64 2.54036 131.161 1.94141C131.688 1.33594 132.31 0.876953 133.026 0.564453C133.749 0.245443 134.546 0.0859375 135.418 0.0859375C136.297 0.0859375 137.098 0.245443 137.821 0.564453C138.543 0.876953 139.165 1.33594 139.686 1.94141C140.207 2.54036 140.607 3.26628 140.887 4.11914C141.174 4.96549 141.317 5.92578 141.317 7ZM138.866 7.78125V6.98047C138.866 6.1862 138.788 5.48633 138.631 4.88086C138.482 4.26888 138.257 3.75781 137.958 3.34766C137.665 2.93099 137.303 2.61849 136.874 2.41016C136.444 2.19531 135.959 2.08789 135.418 2.08789C134.878 2.08789 134.396 2.19531 133.973 2.41016C133.55 2.61849 133.189 2.93099 132.889 3.34766C132.596 3.75781 132.372 4.26888 132.215 4.88086C132.059 5.48633 131.981 6.1862 131.981 6.98047V7.78125C131.981 8.57552 132.059 9.27865 132.215 9.89062C132.372 10.5026 132.599 11.0202 132.899 11.4434C133.205 11.86 133.569 12.1758 133.993 12.3906C134.416 12.599 134.898 12.7031 135.438 12.7031C135.985 12.7031 136.47 12.599 136.893 12.3906C137.316 12.1758 137.674 11.86 137.967 11.4434C138.26 11.0202 138.482 10.5026 138.631 9.89062C138.788 9.27865 138.866 8.57552 138.866 7.78125Z" fill="#F5F5F5"/>
</svg>
