<svg width="16" height="15" viewBox="0 0 16 15" fill="none" xmlns="http://www.w3.org/2000/svg">
<g filter="url(#filter0_d_1_517)">
<path d="M12.3255 1.85818C11.1273 0.659912 9.53407 0 7.83948 0C6.14489 0 4.5517 0.659912 3.35345 1.85818C2.15515 3.05648 1.49524 4.64965 1.49524 6.34421C1.49524 9.77232 4.73665 12.6236 6.47805 14.1555C6.72002 14.3684 6.92899 14.5522 7.09543 14.7076C7.30405 14.9026 7.57171 15 7.83945 15C8.10717 15 8.37488 14.9025 8.58347 14.7077C8.74997 14.5522 8.95891 14.3684 9.20088 14.1555C10.9423 12.6237 14.1837 9.77235 14.1837 6.34424C14.1837 4.64965 13.5238 3.05648 12.3255 1.85818ZM7.83948 8.9003C6.29785 8.9003 5.04368 7.64613 5.04368 6.1045C5.04368 4.56287 6.29785 3.3087 7.83948 3.3087C9.38111 3.3087 10.6353 4.56287 10.6353 6.1045C10.6353 7.64613 9.38108 8.9003 7.83948 8.9003Z" fill="#F5F5F5"/>
</g>
<defs>
<filter id="filter0_d_1_517" x="-2.50476" y="0" width="20.6885" height="23" filterUnits="userSpaceOnUse" color-interpolation-filters="sRGB">
<feFlood flood-opacity="0" result="BackgroundImageFix"/>
<feColorMatrix in="SourceAlpha" type="matrix" values="0 0 0 0 0 0 0 0 0 0 0 0 0 0 0 0 0 0 127 0" result="hardAlpha"/>
<feOffset dy="4"/>
<feGaussianBlur stdDeviation="2"/>
<feComposite in2="hardAlpha" operator="out"/>
<feColorMatrix type="matrix" values="0 0 0 0 0 0 0 0 0 0 0 0 0 0 0 0 0 0 0.25 0"/>
<feBlend mode="normal" in2="BackgroundImageFix" result="effect1_dropShadow_1_517"/>
<feBlend mode="normal" in="SourceGraphic" in2="effect1_dropShadow_1_517" result="shape"/>
</filter>
</defs>
</svg>
