<svg width="16" height="16" viewBox="0 0 16 16" fill="none" xmlns="http://www.w3.org/2000/svg">
<g clip-path="url(#clip0_416_77)">
<path d="M2.8967 1.19758C2.66237 1.20467 2.45651 1.32834 2.28421 1.50063L1.99673 1.78764L5.11227 4.95994L5.56455 4.50765C5.83711 4.23509 5.83711 3.78506 5.56455 3.5125L3.55222 1.50063C3.35731 1.30572 3.13102 1.19039 2.8967 1.19758ZM8.29739 2.37907C11.0184 2.37907 13.2197 4.58035 13.2197 7.3014C13.2126 7.62092 13.6956 7.62092 13.6885 7.3014C13.6885 4.32702 11.2718 1.91215 8.28618 1.91215C7.98744 1.94794 8.00777 2.37106 8.2974 2.37907H8.29739ZM1.6644 2.11907L1.33435 2.44866C0.794288 2.98871 0.797852 3.69534 0.797852 4.02151C0.797852 5.37118 1.33743 7.70455 4.61606 10.9832C7.8947 14.2618 10.2285 14.8018 11.5782 14.8018C11.9044 14.8019 12.611 14.8054 13.1511 14.2654L13.4495 13.9669L10.334 10.7946L10.0071 11.1219C9.81345 11.3156 9.67051 11.3387 9.53152 11.3224C9.39255 11.3061 9.24887 11.2257 9.1438 11.1443C8.57087 10.7008 7.64325 10.0658 6.58856 9.01115C5.53387 7.95647 4.89895 7.02838 4.45538 6.45545C4.37407 6.35038 4.29366 6.20853 4.27731 6.06955C4.26093 5.93057 4.28608 5.78581 4.47964 5.59212L4.7804 5.29137L1.6644 2.11907ZM8.29739 3.31702C7.99173 3.32411 7.99173 3.77902 8.29739 3.78578C10.2418 3.78578 11.813 5.357 11.813 7.3014C11.8198 7.60704 12.275 7.60704 12.2818 7.3014C12.2818 5.10367 10.4951 3.31702 8.29739 3.31702ZM8.29739 4.72327C7.98459 4.72327 7.98459 5.19248 8.29739 5.19248C9.46514 5.19248 10.4063 6.13365 10.4063 7.3014C10.4063 7.61421 10.8755 7.61421 10.8755 7.3014C10.8755 5.88032 9.71848 4.72327 8.29739 4.72327ZM8.29739 6.59919C8.68849 6.59919 9.00189 6.9103 9.00189 7.3014C8.9948 7.62092 9.47773 7.62092 9.47064 7.3014C9.47064 6.65697 8.94183 6.12997 8.28618 6.12997C7.96239 6.14512 7.98482 6.61435 8.2974 6.59919H8.29739ZM11.5892 9.83053C11.4086 9.83053 11.2283 9.89885 11.092 10.0352L10.6654 10.4623L13.7814 13.635L14.0991 13.3173C14.2714 13.145 14.3945 12.9373 14.4017 12.703C14.4088 12.4687 14.294 12.2424 14.0991 12.0475L12.0868 10.0352C11.9505 9.89889 11.7697 9.83053 11.5892 9.83053Z" fill="#F5F5F5"/>
</g>
<defs>
<clipPath id="clip0_416_77">
<rect width="15" height="15" fill="white" transform="translate(0.100098 0.5)"/>
</clipPath>
</defs>
</svg>
