<svg width="16" height="16" viewBox="0 0 16 16" fill="none" xmlns="http://www.w3.org/2000/svg">
<path d="M7.83896 0.000209808C3.69686 0.000209808 0.338989 3.37433 0.338989 7.53648C0.338989 10.7292 2.31585 13.4586 5.10578 14.5567C5.04024 13.9604 4.98098 13.0434 5.13178 12.3924C5.26808 11.8043 6.01124 8.64643 6.01124 8.64643C6.01124 8.64643 5.78691 8.19496 5.78691 7.52752C5.78691 6.4796 6.39137 5.69726 7.144 5.69726C7.78387 5.69726 8.09293 6.17999 8.09293 6.75884C8.09293 7.40545 7.68323 8.3722 7.47181 9.26809C7.29511 10.0182 7.84615 10.6299 8.58243 10.6299C9.91542 10.6299 10.9401 9.21755 10.9401 7.17886C10.9401 5.37442 9.64977 4.11281 7.8073 4.11281C5.67329 4.11281 4.42072 5.72117 4.42072 7.38334C4.42072 8.03107 4.66903 8.72562 4.97889 9.1032C5.04018 9.17783 5.04916 9.24319 5.0309 9.31936C4.97397 9.55739 4.84744 10.0693 4.82261 10.174C4.7899 10.312 4.71391 10.3413 4.57177 10.2748C3.63507 9.83668 3.04942 8.46054 3.04942 7.35523C3.04942 4.97793 4.76838 2.79468 8.00495 2.79468C10.6067 2.79468 12.6286 4.65762 12.6286 7.14729C12.6286 9.74457 10.9988 11.8348 8.73674 11.8348C7.97673 11.8348 7.26228 11.4381 7.01772 10.9695C7.01772 10.9695 6.64165 12.4084 6.55048 12.761C6.38116 13.4156 5.92407 14.2361 5.61833 14.7367C6.32005 14.955 7.0658 15.0728 7.83896 15.0728C11.9811 15.0728 15.339 11.6986 15.339 7.53648C15.339 3.37433 11.9811 0.000209808 7.83896 0.000209808Z" fill="#F5F5F5"/>
</svg>
