<svg width="16" height="15" viewBox="0 0 16 15" fill="none" xmlns="http://www.w3.org/2000/svg">
<g clip-path="url(#clip0_1_503)">
<path d="M0.603933 7.23097L4.06023 8.52097L5.39803 12.8233C5.48363 13.0989 5.82058 13.2007 6.04423 13.0179L7.97083 11.4473C8.17278 11.2827 8.46043 11.2745 8.67148 11.4277L12.1464 13.9506C12.3856 14.1245 12.7246 13.9934 12.7846 13.7043L15.3301 1.45972C15.3956 1.14392 15.0853 0.880473 14.7846 0.996773L0.599883 6.46882C0.249834 6.60382 0.252884 7.09942 0.603933 7.23097ZM5.18243 7.83427L11.9373 3.67392C12.0587 3.59937 12.1836 3.76352 12.0794 3.86022L6.50463 9.04222C6.30868 9.22462 6.18228 9.46872 6.14648 9.73367L5.95658 11.141C5.93143 11.3289 5.66748 11.3475 5.61563 11.1657L4.88528 8.59942C4.80163 8.30672 4.92353 7.99407 5.18243 7.83427Z" fill="#F5F5F5"/>
</g>
<defs>
<clipPath id="clip0_1_503">
<rect width="15" height="15" fill="white" transform="translate(0.338989)"/>
</clipPath>
</defs>
</svg>
